<?xml version="1.0" encoding="utf-8"?>
<!-- Generator: Adobe Illustrator 16.0.4, SVG Export Plug-In . SVG Version: 6.00 Build 0)  -->
<!DOCTYPE svg PUBLIC "-//W3C//DTD SVG 1.1//EN" "http://www.w3.org/Graphics/SVG/1.1/DTD/svg11.dtd">
<svg version="1.1" id="Ebene_1" xmlns="http://www.w3.org/2000/svg" xmlns:xlink="http://www.w3.org/1999/xlink" x="0px" y="0px"
	 width="23px" height="23px" viewBox="0 0 221.48 212.134" enable-background="new 0 0 221.48 212.134"
	 xml:space="preserve">
<path fill="none" d="M155.044,113.464c-2.079-0.654-4.244-1.045-6.374-1.543c-4.251-0.998-8.597-1.645-12.649-3.395
	c-4.1-1.77-6.021-4.859-5.771-9.326c0.309-5.506,4.78-9.076,12.15-9.549c8.852-0.57,16.53,2.664,24.398,8.191
	c0-3.846-0.245-6.756,0.065-9.605c0.336-3.088-1.062-4.447-3.725-5.414c-8.1-2.938-16.374-4.146-24.942-2.961
	c-11.466,1.586-19.732,9.572-20.313,19.58c-0.691,11.848,4.607,18.518,17.461,21.873c4.792,1.252,9.695,2.127,14.41,3.613
	c5.579,1.754,7.453,4.709,7.141,10.033c-0.279,4.732-2.881,7.48-8.229,8.795c-10.158,2.488-18.939-0.904-27.287-6.285
	c-1.139-0.736-1.919-2.215-3.829-1.98c-0.043,0.756-0.105,1.447-0.117,2.143c-0.225,12.477-0.211,12.809,11.938,15.639
	c11.055,2.576,22.101,3.004,31.848-4.307c7.159-5.369,9.17-12.82,7.729-21.406C167.615,119.61,162.148,115.7,155.044,113.464z"/>
<path fill="none" d="M83.197,57.928c-9.462-0.86-18.953-0.277-28.418-0.625c-3.587-0.132-4.27,1.11-4.254,4.428
	c0.128,27.419,0.073,54.841,0.073,82.261c0,9.695-0.004,9.617,9.982,9.082c2.308-0.123,2.999-0.887,2.937-3.117
	c-0.134-4.809-0.041-9.625-0.04-14.438c0-4.961,0.124-9.924-0.051-14.875c-0.09-2.545,0.85-3.176,3.257-3.15
	c6.26,0.068,12.531,0.35,18.758-0.826c16.07-3.029,26.261-15.787,25.55-32.133C110.342,69.625,99.687,59.429,83.197,57.928z
	 M85.426,104.966c-6.511,1.992-13.282,1.469-19.977,1.602c-1.96,0.039-1.984-1.201-1.982-2.604
	c0.012-10.936,0.051-21.871-0.03-32.807c-0.016-2.146,0.782-2.803,2.814-2.677c2.178,0.135,4.372,0.031,6.559,0.031
	c3.498,0.069,6.988,0.139,10.451,0.796c8.933,1.693,13.841,7.139,14.417,16.109C98.272,94.646,93.451,102.513,85.426,104.966z"/>
<path fill="none" d="M155.044,113.464c-2.079-0.654-4.244-1.045-6.374-1.543c-4.251-0.998-8.597-1.645-12.649-3.395
	c-4.1-1.77-6.021-4.859-5.771-9.326c0.309-5.506,4.78-9.076,12.15-9.549c8.852-0.57,16.53,2.664,24.398,8.191
	c0-3.846-0.245-6.756,0.065-9.605c0.336-3.088-1.062-4.447-3.725-5.414c-8.1-2.938-16.374-4.146-24.942-2.961
	c-11.466,1.586-19.732,9.572-20.313,19.58c-0.691,11.848,4.607,18.518,17.461,21.873c4.792,1.252,9.695,2.127,14.41,3.613
	c5.579,1.754,7.453,4.709,7.141,10.033c-0.279,4.732-2.881,7.48-8.229,8.795c-10.158,2.488-18.939-0.904-27.287-6.285
	c-1.139-0.736-1.919-2.215-3.829-1.98c-0.043,0.756-0.105,1.447-0.117,2.143c-0.225,12.477-0.211,12.809,11.938,15.639
	c11.055,2.576,22.101,3.004,31.848-4.307c7.159-5.369,9.17-12.82,7.729-21.406C167.615,119.61,162.148,115.7,155.044,113.464z"/>
<path fill="none" d="M83.197,57.928c-9.462-0.86-18.953-0.277-28.418-0.625c-3.587-0.132-4.27,1.11-4.254,4.428
	c0.128,27.419,0.073,54.841,0.073,82.261c0,9.695-0.004,9.617,9.982,9.082c2.308-0.123,2.999-0.887,2.937-3.117
	c-0.134-4.809-0.041-9.625-0.04-14.438c0-4.961,0.124-9.924-0.051-14.875c-0.09-2.545,0.85-3.176,3.257-3.15
	c6.26,0.068,12.531,0.35,18.758-0.826c16.07-3.029,26.261-15.787,25.55-32.133C110.342,69.625,99.687,59.429,83.197,57.928z
	 M85.426,104.966c-6.511,1.992-13.282,1.469-19.977,1.602c-1.96,0.039-1.984-1.201-1.982-2.604
	c0.012-10.936,0.051-21.871-0.03-32.807c-0.016-2.146,0.782-2.803,2.814-2.677c2.178,0.135,4.372,0.031,6.559,0.031
	c3.498,0.069,6.988,0.139,10.451,0.796c8.933,1.693,13.841,7.139,14.417,16.109C98.272,94.646,93.451,102.513,85.426,104.966z"/>
<g>
	<path fill="none" d="M83.197,57.928c-9.462-0.86-18.953-0.277-28.418-0.625c-3.587-0.132-4.27,1.11-4.254,4.428
		c0.128,27.419,0.073,54.841,0.073,82.261c0,9.695-0.004,9.617,9.982,9.082c2.308-0.123,2.999-0.887,2.937-3.117
		c-0.134-4.809-0.041-9.625-0.04-14.438c0-4.961,0.124-9.924-0.051-14.875c-0.09-2.545,0.85-3.176,3.257-3.15
		c6.26,0.068,12.531,0.35,18.758-0.826c16.07-3.029,26.261-15.787,25.55-32.133C110.342,69.625,99.687,59.429,83.197,57.928z"/>
	<path fill="none" d="M155.044,113.464c-2.079-0.654-4.244-1.045-6.374-1.543c-4.251-0.998-8.597-1.645-12.649-3.395
		c-4.1-1.77-6.021-4.859-5.771-9.326c0.309-5.506,4.78-9.076,12.15-9.549c8.852-0.57,16.53,2.664,24.398,8.191
		c0-3.846-0.245-6.756,0.065-9.605c0.336-3.088-1.062-4.447-3.725-5.414c-8.1-2.938-16.374-4.146-24.942-2.961
		c-11.466,1.586-19.732,9.572-20.313,19.58c-0.691,11.848,4.607,18.518,17.461,21.873c4.792,1.252,9.695,2.127,14.41,3.613
		c5.579,1.754,7.453,4.709,7.141,10.033c-0.279,4.732-2.881,7.48-8.229,8.795c-10.158,2.488-18.939-0.904-27.287-6.285
		c-1.139-0.736-1.919-2.215-3.829-1.98c-0.043,0.756-0.105,1.447-0.117,2.143c-0.225,12.477-0.211,12.809,11.938,15.639
		c11.055,2.576,22.101,3.004,31.848-4.307c7.159-5.369,9.17-12.82,7.729-21.406C167.615,119.61,162.148,115.7,155.044,113.464z"/>
	<path fill="#909800" d="M222.304-2.863c0.004-2.611-0.525-3.14-3.136-3.137C146.491-5.91,73.814-5.91,1.137-6
		C-1.475-6.003-2.002-5.475-2-2.863c0.089,72.677,0.089,145.354,0,218.03c-0.003,2.611,0.524,3.146,3.137,3.139
		c36.192-0.107,72.384-0.072,108.577-0.072c36.484,0,72.97-0.035,109.454,0.072c2.612,0.008,3.14-0.527,3.136-3.139
		C222.215,142.491,222.215,69.814,222.304-2.863z M85.44,116.669c-6.228,1.176-12.499,0.895-18.758,0.826
		c-2.407-0.025-3.347,0.605-3.257,3.15c0.175,4.951,0.051,9.914,0.051,14.875c-0.001,4.812-0.094,9.629,0.04,14.438
		c0.062,2.23-0.628,2.994-2.937,3.117c-9.986,0.535-9.982,0.613-9.982-9.082c0-27.42,0.056-54.842-0.073-82.261
		c-0.016-3.318,0.667-4.56,4.254-4.428c9.466,0.347,18.957-0.236,28.418,0.625c16.49,1.501,27.146,11.697,27.793,26.608
		C111.701,100.882,101.51,113.64,85.44,116.669z M161.219,148.966c-9.747,7.311-20.793,6.883-31.848,4.307
		c-12.149-2.83-12.163-3.162-11.938-15.639c0.012-0.695,0.074-1.387,0.117-2.143c1.91-0.234,2.69,1.244,3.829,1.98
		c8.348,5.381,17.129,8.773,27.287,6.285c5.349-1.314,7.95-4.062,8.229-8.795c0.312-5.324-1.562-8.279-7.141-10.033
		c-4.715-1.486-9.618-2.361-14.41-3.613c-12.854-3.355-18.152-10.025-17.461-21.873c0.581-10.008,8.848-17.994,20.313-19.58
		c8.568-1.186,16.843,0.023,24.942,2.961c2.663,0.967,4.061,2.326,3.725,5.414c-0.311,2.85-0.065,5.76-0.065,9.605
		c-7.868-5.527-15.547-8.762-24.398-8.191c-7.37,0.473-11.842,4.043-12.15,9.549c-0.251,4.467,1.671,7.557,5.771,9.326
		c4.053,1.75,8.398,2.396,12.649,3.395c2.13,0.498,4.295,0.889,6.374,1.543c7.104,2.236,12.57,6.146,13.904,14.096
		C170.389,136.146,168.378,143.597,161.219,148.966z"/>
	<path fill="#909800" d="M83.261,69.308c-3.462-0.657-6.953-0.728-10.451-0.796c-2.187,0-4.381,0.104-6.559-0.031
		c-2.033-0.126-2.831,0.53-2.814,2.677c0.082,10.936,0.042,21.871,0.03,32.807c-0.001,1.402,0.022,2.643,1.982,2.604
		c6.694-0.133,13.466,0.391,19.977-1.602c8.024-2.453,12.846-10.32,12.252-19.549C97.102,76.446,92.194,71.001,83.261,69.308z"/>
</g>
<rect x="-375.096" y="-384.755" fill="#909800" width="169" height="136"/>
</svg>
