<?xml version="1.0" encoding="utf-8"?>
<!-- Generator: Adobe Illustrator 16.0.4, SVG Export Plug-In . SVG Version: 6.00 Build 0)  -->
<!DOCTYPE svg PUBLIC "-//W3C//DTD SVG 1.1//EN" "http://www.w3.org/Graphics/SVG/1.1/DTD/svg11.dtd">
<svg version="1.1" id="Ebene_1" xmlns="http://www.w3.org/2000/svg" xmlns:xlink="http://www.w3.org/1999/xlink" x="0px" y="0px"
	 width="23px" height="23px" viewBox="0 0 221.48 212.134" enable-background="new 0 0 221.48 212.134"
	 xml:space="preserve">
<g>
	<path fill="#909800" d="M130.211,1.911c-5.788,7.731-8.689,13.591-10.2,20.595c-0.452,2.097-0.514,3.007-0.522,7.8
		c-0.011,5.787,0.148,7.168,1.354,11.777c1.089,4.16,3.423,9.539,5.799,13.361c5.533,8.903,14.448,16.935,24.033,21.653
		c5.312,2.614,10.462,4.298,14.83,4.845c3.296,0.414,10.693,0.54,14.673,0.252c11.574-0.841,22.118-6.483,29.159-15.604
		c1.972-2.555,4.121-5.771,4.909-7.348c0.56-1.119,0.543-1.107-1.795,1.244c-3.937,3.958-7.858,6.415-12.968,8.122
		c-5.485,1.834-12.253,2.445-19.08,1.725c-14.265-1.505-25.795-6.743-35.538-16.146c-8.299-8.007-13.736-17.462-15.892-27.635
		c-1.806-8.523-1.171-16.508,1.929-24.257c0.488-1.221,0.87-2.264,0.839-2.294C131.71-0.031,131.025,0.826,130.211,1.911
		L130.211,1.911z"/>
	<path fill="#909800" d="M81.445,15.995c-7.867,11.032-10.287,15.031-12.6,20.821c-3.016,7.546-4.281,14.513-4.281,23.557
		c0,11.891,2.318,21.912,7.554,32.645c2.89,5.923,6.831,12.267,10.479,16.865c3.445,4.34,11.107,11.632,16.578,15.776
		c10.29,7.793,22.811,13.702,33.64,15.874c13.112,2.63,30.212,2.029,42.728-1.501c18.695-5.272,34.441-18.258,43.274-35.688
		c1.604-3.165,2.844-6.073,2.663-6.245c-0.062-0.059-0.861,0.842-1.769,1.995c-6.396,8.12-16.114,15.226-26.196,19.152
		c-8.558,3.335-16.48,4.766-26.383,4.766c-8.861,0-15.889-0.97-24.031-3.316c-27.942-8.054-50.853-29.214-60.514-55.892
		c-1.658-4.577-3.278-11.394-3.955-16.639c-0.42-3.256-0.354-11.71,0.121-15.373c0.973-7.506,2.72-13.717,5.639-20.053
		c0.448-0.972,0.771-1.764,0.722-1.764S83.411,13.237,81.445,15.995L81.445,15.995z"/>
	<path fill="#909800" d="M27.113,32.295c-3.169,3.911-9.467,11.94-11.773,15.011c-2.934,3.903-4.493,6.397-6.516,10.422
		c-6.818,13.564-9.686,28.124-8.601,43.677c1.665,23.873,11.127,46.67,27.597,66.487c3.068,3.692,11.967,12.579,15.697,15.678
		c11.79,9.793,24.393,17.135,38.432,22.391c12.313,4.609,24.71,6.436,41.71,6.144c8.003-0.138,11.211-0.354,15.825-1.064
		c18.38-2.831,34.594-9.797,48.288-20.743c3.088-2.468,9.31-8.545,12.405-12.118c4.545-5.244,8.913-11.258,11.988-16.502
		c1.404-2.397,4.048-7.821,3.889-7.98c-0.05-0.051-1.113,1.062-2.377,2.486c-9.887,11.142-21.632,18.838-36.259,23.758
		c-12.144,4.085-25.094,5.743-40.037,5.127c-13.18-0.545-21.865-2.088-33.028-5.87c-6.624-2.243-15.295-6.089-21.002-9.315
		c-8.592-4.854-17.08-10.903-23.285-16.592c-3.527-3.232-10.488-10.348-13.025-13.316c-5.835-6.822-11.062-14.739-15.39-23.308
		c-5.618-11.124-9.04-22.133-10.905-35.087c-0.461-3.204-0.512-4.408-0.494-11.71c0.021-8.727,0.229-11.783,1.135-16.617
		c1.333-7.121,3.496-14.043,6.423-20.549c0.519-1.153,0.909-2.133,0.866-2.17C28.631,30.494,27.937,31.277,27.113,32.295
		L27.113,32.295z"/>
</g>
</svg>
