<?xml version="1.0" encoding="utf-8"?>
<!-- Generator: Adobe Illustrator 16.0.4, SVG Export Plug-In . SVG Version: 6.00 Build 0)  -->
<!DOCTYPE svg PUBLIC "-//W3C//DTD SVG 1.1//EN" "http://www.w3.org/Graphics/SVG/1.1/DTD/svg11.dtd">
<svg version="1.1" id="Ebene_1" xmlns="http://www.w3.org/2000/svg" xmlns:xlink="http://www.w3.org/1999/xlink" x="0px" y="0px"
	 width="26.678px" height="26.678px" viewBox="0 0 26.678 26.678" enable-background="new 0 0 26.678 26.678" xml:space="preserve">
<text transform="matrix(1 0 0 1 -75.3354 -32.6553)" font-family="'BanglaSangamMN-Bold'" font-size="10">ID</text>
<g>
	<path fill="#909800" d="M12.562,23.132h1.553c0.285,0,0.514,0.231,0.514,0.513v1.244c0,0.282-0.229,0.512-0.514,0.512h-1.553
		c-0.283,0-0.512-0.229-0.512-0.512v-1.244C12.051,23.363,12.279,23.132,12.562,23.132z M6.093,8.148
		c0.02,3.841,3.283,9.834,6.3,13.972h0.296c-2.292-4.184-4.25-9.344-4.268-13.411C8.404,5.02,9.912,2.678,11.945,1.343
		c-0.451,0.042-0.904,0.104-1.352,0.189C8.086,2.53,6.075,4.589,6.093,8.148z M12.731,1.29c-1.175,1.581-2.081,3.824-2.073,7.078
		c0.009,4.247,1.005,9.296,2.287,13.752h0.789c1.281-4.456,2.273-9.505,2.283-13.752c0.008-3.254-0.898-5.497-2.074-7.078
		C13.539,1.273,13.135,1.273,12.731,1.29z M20.584,8.148c-0.02,3.841-3.283,9.834-6.299,13.972h-0.297
		c2.295-4.184,4.25-9.344,4.268-13.411c0.016-3.689-1.49-6.031-3.525-7.366c0.451,0.042,0.906,0.104,1.354,0.189
		C18.59,2.53,20.602,4.589,20.584,8.148z M14.49,22.12c3.377-3.555,7.207-9.494,7.232-14.07c0.016-2.807-1.35-4.667-3.264-5.806
		c2.342,1.007,4.125,2.863,4.111,5.883c-0.029,4.648-4.484,10.789-8.021,13.993H14.49z M12.188,22.12
		C8.81,18.566,4.98,12.626,4.955,8.05C4.94,5.243,6.305,3.383,8.218,2.244C5.875,3.251,4.09,5.109,4.108,8.127
		c0.027,4.648,4.483,10.789,8.021,13.993H12.188z"/>
</g>
</svg>
