<?xml version="1.0" encoding="utf-8"?>
<!-- Generator: Adobe Illustrator 16.0.4, SVG Export Plug-In . SVG Version: 6.00 Build 0)  -->
<!DOCTYPE svg PUBLIC "-//W3C//DTD SVG 1.1//EN" "http://www.w3.org/Graphics/SVG/1.1/DTD/svg11.dtd">
<svg version="1.1" id="Ebene_1" xmlns="http://www.w3.org/2000/svg" xmlns:xlink="http://www.w3.org/1999/xlink" x="0px" y="0px"
	 width="23px" height="23px" viewBox="0 0 23 23" enable-background="new 0 0 23 23" xml:space="preserve">
<g>
	<path fill="#909800" d="M0,0v23h23V0H0z M7.933,16.291H6.312V6.709h1.621V16.291z M16.443,13.994
		c-0.164,0.464-0.393,0.869-0.689,1.207c-0.299,0.341-0.655,0.61-1.068,0.801c-0.414,0.192-0.871,0.289-1.372,0.289h-2.949V8.699
		h2.949c0.522,0,0.991,0.1,1.407,0.296c0.416,0.197,0.77,0.468,1.062,0.812c0.293,0.342,0.516,0.745,0.671,1.201
		c0.157,0.46,0.234,0.95,0.234,1.474C16.688,13.025,16.606,13.531,16.443,13.994z"/>
	<path fill="#909800" d="M14.721,10.434c-0.212-0.219-0.465-0.385-0.759-0.492C13.668,9.836,13.351,9.78,13.01,9.78h-1.361v5.41
		h1.361c0.344,0,0.663-0.058,0.957-0.177c0.295-0.117,0.547-0.289,0.76-0.52c0.212-0.229,0.377-0.51,0.498-0.845
		c0.119-0.337,0.18-0.722,0.18-1.157c0-0.469-0.061-0.872-0.184-1.213C15.101,10.938,14.934,10.654,14.721,10.434z"/>
</g>
<text transform="matrix(1 0 0 1 -75.3354 -32.6553)" font-family="'BanglaSangamMN-Bold'" font-size="10">ID</text>
</svg>
